<svg width="56" height="56" viewBox="0 0 56 56" fill="none" xmlns="http://www.w3.org/2000/svg">
<path d="M38.0405 31.0404C38.431 30.6499 38.431 30.0167 38.0405 29.6262C37.65 29.2357 37.0168 29.2357 36.6263 29.6262L38.0405 31.0404ZM28 39.6666L27.2929 40.3738C27.4805 40.5613 27.7348 40.6666 28 40.6666C28.2653 40.6666 28.5196 40.5613 28.7071 40.3738L28 39.6666ZM19.3738 29.6262C18.9833 29.2357 18.3501 29.2357 17.9596 29.6262C17.5691 30.0167 17.5691 30.6499 17.9596 31.0404L19.3738 29.6262ZM36.6263 29.6262L27.2929 38.9595L28.7071 40.3738L38.0405 31.0404L36.6263 29.6262ZM28.7071 38.9595L19.3738 29.6262L17.9596 31.0404L27.2929 40.3738L28.7071 38.9595Z" fill="#403ECC"/>
<path d="M38.0405 17.0404C38.431 16.6499 38.431 16.0167 38.0405 15.6262C37.65 15.2357 37.0168 15.2357 36.6263 15.6262L38.0405 17.0404ZM28 25.6666L27.2929 26.3738C27.6835 26.7643 28.3166 26.7643 28.7071 26.3738L28 25.6666ZM19.3738 15.6262C18.9833 15.2357 18.3501 15.2357 17.9596 15.6262C17.5691 16.0167 17.5691 16.6499 17.9596 17.0404L19.3738 15.6262ZM36.6263 15.6262L27.2929 24.9595L28.7071 26.3738L38.0405 17.0404L36.6263 15.6262ZM28.7071 24.9595L19.3738 15.6262L17.9596 17.0404L27.2929 26.3738L28.7071 24.9595Z" fill="#403ECC"/>
</svg>
