<svg width="24" height="25" viewBox="0 0 24 25" fill="none" xmlns="http://www.w3.org/2000/svg">
  <path fill-rule="evenodd" clip-rule="evenodd"
    d="M16.3835 3.51188C11.8766 1.3137 6.52651 2.81067 3.76758 6.82024V5.51063C3.76758 4.95834 3.31986 4.51063 2.76758 4.51063C2.21529 4.51063 1.76758 4.95834 1.76758 5.51063V9.51063C1.76758 10.0629 2.21529 10.5106 2.76758 10.5106H6.76758C7.31986 10.5106 7.76758 10.0629 7.76758 9.51063C7.76758 8.95834 7.31986 8.51063 6.76758 8.51063H5.06503C7.14234 4.89106 11.7004 3.45299 15.5068 5.30947C19.4779 7.24632 21.127 12.0357 19.1902 16.0068C17.2533 19.9779 12.464 21.627 8.49285 19.6902C6.89453 18.9106 5.63236 17.649 4.85195 16.0937C4.60427 15.6 4.00332 15.4006 3.50969 15.6483C3.01606 15.896 2.81667 16.497 3.06435 16.9906C4.03975 18.9346 5.62017 20.5143 7.61611 21.4878C12.58 23.9088 18.5667 21.8474 20.9878 16.8835C23.4088 11.9196 21.3474 5.93294 16.3835 3.51188ZM10 8.49988C10 7.94759 10.4477 7.49988 11 7.49988C11.5523 7.49988 12 7.94759 12 8.49988V14.4999H16C16.5523 14.4999 17 14.9476 17 15.4999C17 16.0522 16.5523 16.4999 16 16.4999H11C10.4477 16.4999 10 16.0522 10 15.4999V8.49988Z"
    fill="#92929D" />
</svg>