<svg width="20" height="21" viewBox="0 0 20 21" fill="none" xmlns="http://www.w3.org/2000/svg">
  <path fill-rule="evenodd" clip-rule="evenodd"
    d="M4.99996 1.33325H12.943C13.4376 1.33325 13.9067 1.55296 14.2233 1.93294L17.947 6.40132C18.1966 6.70084 18.3333 7.0784 18.3333 7.46829V16.3333C18.3333 18.1742 16.8409 19.6666 15 19.6666H4.99996C3.15901 19.6666 1.66663 18.1742 1.66663 16.3333V4.66658C1.66663 2.82564 3.15901 1.33325 4.99996 1.33325ZM16.6666 16.3333V7.99992H14.1666C13.2462 7.99992 12.5 7.25373 12.5 6.33325V2.99992H4.99996C4.07948 2.99992 3.33329 3.74611 3.33329 4.66658V16.3333C3.33329 17.2537 4.07948 17.9999 4.99996 17.9999H15C15.9204 17.9999 16.6666 17.2537 16.6666 16.3333ZM15.7208 6.33325L14.1666 4.46829V6.33325H15.7208ZM6.66663 12.1666C6.20639 12.1666 5.83329 11.7935 5.83329 11.3333C5.83329 10.873 6.20639 10.4999 6.66663 10.4999H13.3333C13.7935 10.4999 14.1666 10.873 14.1666 11.3333C14.1666 11.7935 13.7935 12.1666 13.3333 12.1666H6.66663ZM6.66663 15.4999C6.20639 15.4999 5.83329 15.1268 5.83329 14.6666C5.83329 14.2063 6.20639 13.8333 6.66663 13.8333H11.6666C12.1269 13.8333 12.5 14.2063 12.5 14.6666C12.5 15.1268 12.1269 15.4999 11.6666 15.4999H6.66663ZM6.66663 8.83325C6.20639 8.83325 5.83329 8.46016 5.83329 7.99992C5.83329 7.53968 6.20639 7.16658 6.66663 7.16658H9.16663C9.62686 7.16658 9.99996 7.53968 9.99996 7.99992C9.99996 8.46016 9.62686 8.83325 9.16663 8.83325H6.66663Z"
    fill="#92929D" />
</svg>