<svg width="22" height="22" viewBox="0 0 22 22" fill="none" xmlns="http://www.w3.org/2000/svg">
  <path fill-rule="evenodd" clip-rule="evenodd"
    d="M20.1168 21.6353C21.195 21.3957 21.8749 20.3273 21.6353 19.2491L20.8786 15.8439C21.6123 14.3503 22 12.7022 22 11C22 4.92487 17.0751 0 11 0C4.92487 0 0 4.92487 0 11C0 17.0751 4.92487 22 11 22C12.7022 22 14.3503 21.6123 15.8439 20.8786L19.2491 21.6353C19.5348 21.6988 19.831 21.6988 20.1168 21.6353ZM20 11C20 12.5 19.6335 13.9449 18.9424 15.2373C18.8296 15.4481 18.7961 15.6924 18.848 15.9258L19.6829 19.6829L15.9258 18.848C15.6924 18.7961 15.4481 18.8296 15.2373 18.9424C13.9449 19.6335 12.5 20 11 20C6.02944 20 2 15.9706 2 11C2 6.02944 6.02944 2 11 2C15.9706 2 20 6.02944 20 11Z"
    fill="#696974" />
</svg>