<svg width="20" height="21" viewBox="0 0 20 21" fill="none" xmlns="http://www.w3.org/2000/svg">
  <path
    d="M5.83333 3C3.99238 3 2.5 4.49238 2.5 6.33333V16.3333C2.5 18.1743 3.99238 19.6667 5.83333 19.6667H14.1667C16.0076 19.6667 17.5 18.1743 17.5 16.3333V6.33333C17.5 4.49238 16.0076 3 14.1667 3V4.66667C15.0871 4.66667 15.8333 5.41286 15.8333 6.33333V16.3333C15.8333 17.2538 15.0871 18 14.1667 18H5.83333C4.91286 18 4.16667 17.2538 4.16667 16.3333V6.33333C4.16667 5.41286 4.91286 4.66667 5.83333 4.66667V3Z"
    fill="#777E91" />
  <path
    d="M6.66671 9.66667C7.12695 9.66667 7.50004 9.29357 7.50004 8.83333C7.50004 8.3731 7.12695 8 6.66671 8C6.20647 8 5.83337 8.3731 5.83337 8.83333C5.83337 9.29357 6.20647 9.66667 6.66671 9.66667Z"
    fill="#777E91" />
  <path
    d="M10 8C9.5398 8 9.16671 8.3731 9.16671 8.83333C9.16671 9.29357 9.5398 9.66667 10 9.66667H13.3334C13.7936 9.66667 14.1667 9.29357 14.1667 8.83333C14.1667 8.3731 13.7936 8 13.3334 8H10Z"
    fill="#777E91" />
  <path
    d="M10 11.3333C9.5398 11.3333 9.16671 11.7064 9.16671 12.1667C9.16671 12.6269 9.5398 13 10 13H13.3334C13.7936 13 14.1667 12.6269 14.1667 12.1667C14.1667 11.7064 13.7936 11.3333 13.3334 11.3333H10Z"
    fill="#777E91" />
  <path
    d="M9.16671 15.5C9.16671 15.0398 9.5398 14.6667 10 14.6667H11.6667C12.1269 14.6667 12.5 15.0398 12.5 15.5C12.5 15.9602 12.1269 16.3333 11.6667 16.3333H10C9.5398 16.3333 9.16671 15.9602 9.16671 15.5Z"
    fill="#777E91" />
  <path
    d="M7.50004 12.1667C7.50004 12.6269 7.12695 13 6.66671 13C6.20647 13 5.83337 12.6269 5.83337 12.1667C5.83337 11.7064 6.20647 11.3333 6.66671 11.3333C7.12695 11.3333 7.50004 11.7064 7.50004 12.1667Z"
    fill="#777E91" />
  <path
    d="M6.66671 16.3333C7.12695 16.3333 7.50004 15.9602 7.50004 15.5C7.50004 15.0398 7.12695 14.6667 6.66671 14.6667C6.20647 14.6667 5.83337 15.0398 5.83337 15.5C5.83337 15.9602 6.20647 16.3333 6.66671 16.3333Z"
    fill="#777E91" />
  <path fill-rule="evenodd" clip-rule="evenodd"
    d="M12.5 2.99992H7.5C7.03976 2.99992 6.66667 3.37301 6.66667 3.83325C6.66667 4.29349 7.03976 4.66659 7.5 4.66659H12.5C12.9602 4.66659 13.3333 4.29349 13.3333 3.83325C13.3333 3.37301 12.9602 2.99992 12.5 2.99992ZM7.5 1.33325C6.11929 1.33325 5 2.45254 5 3.83325C5 5.21396 6.11929 6.33325 7.5 6.33325H12.5C13.8807 6.33325 15 5.21396 15 3.83325C15 2.45254 13.8807 1.33325 12.5 1.33325H7.5Z"
    fill="#777E91" />
</svg>