<svg width="20" height="21" viewBox="0 0 20 21" fill="none" xmlns="http://www.w3.org/2000/svg">
  <path fill-rule="evenodd" clip-rule="evenodd"
    d="M1.68555 15.8316L2.28943 13.1142C2.42695 12.4954 2.73809 11.9286 3.18636 11.4803L11.393 3.27368C12.6947 1.97193 14.8053 1.97192 16.107 3.27367L17.2263 4.39296C18.5281 5.69471 18.5281 7.80526 17.2263 9.10701L9.01969 17.3136C8.57143 17.7619 8.00462 18.073 7.38577 18.2106L4.66835 18.8144C2.8821 19.2114 1.28861 17.6179 1.68555 15.8316ZM3.9164 13.4758L3.31253 16.1932C3.18022 16.7886 3.71138 17.3198 4.3068 17.1874L7.02422 16.5836C7.32181 16.5174 7.59532 16.371 7.81519 16.1605L4.33944 12.6848C4.12896 12.9047 3.98253 13.1782 3.9164 13.4758ZM5.51767 11.506L8.99398 14.9823L13.6488 10.3275L10.1725 6.85117L5.51767 11.506ZM16.0478 7.9285L14.8273 9.14897L11.351 5.67266L12.5715 4.45219C13.2224 3.80131 14.2776 3.80131 14.9285 4.45218L16.0478 5.57147C16.6987 6.22235 16.6987 7.27762 16.0478 7.9285Z"
    fill="#777E91" />
</svg>