<svg width="24" height="25" viewBox="0 0 24 25" fill="none" xmlns="http://www.w3.org/2000/svg">
  <path fill-rule="evenodd" clip-rule="evenodd"
    d="M12 16.1316C14.0216 16.1316 15.6605 14.5057 15.6605 12.5C15.6605 10.4943 14.0216 8.86842 12 8.86842C9.97838 8.86842 8.33953 10.4943 8.33953 12.5C8.33953 14.5057 9.97838 16.1316 12 16.1316ZM12 14.1316C11.0917 14.1316 10.3554 13.4011 10.3554 12.5C10.3554 11.5989 11.0917 10.8684 12 10.8684C12.9083 10.8684 13.6446 11.5989 13.6446 12.5C13.6446 13.4011 12.9083 14.1316 12 14.1316Z"
    fill="#92929D" />
  <path fill-rule="evenodd" clip-rule="evenodd"
    d="M9.09429 3.83907C9.38357 2.47584 10.5958 1.5 12 1.5C13.4042 1.5 14.6164 2.47584 14.9057 3.83907L14.962 4.10457C16.0187 4.47101 16.9989 5.03018 17.8497 5.7566L18.1074 5.67298C19.442 5.23991 20.9 5.79353 21.6021 7C22.3042 8.20647 22.0585 9.73593 21.0131 10.6661L20.8113 10.8457C21.02 11.9399 21.018 13.0617 20.8095 14.1528L21.0131 14.3339C22.0585 15.2641 22.3042 16.7935 21.6021 18C20.9 19.2065 19.442 19.7601 18.1074 19.327L17.8489 19.2431C17.4276 19.6021 16.971 19.9234 16.4827 20.2031C15.9945 20.4827 15.4857 20.7144 14.9617 20.8969L14.9057 21.1609C14.6164 22.5242 13.4042 23.5 12 23.5C10.5958 23.5 9.38357 22.5242 9.09429 21.1609L9.03795 20.8954C7.98129 20.529 7.00107 19.9698 6.1503 19.2434L5.8926 19.327C4.55798 19.7601 3.10004 19.2065 2.39794 18C1.69584 16.7935 1.94155 15.2641 2.98689 14.3339L3.18874 14.1543C2.98002 13.0601 2.98202 11.9383 3.19048 10.8472L2.98689 10.6661C1.94155 9.73593 1.69584 8.20647 2.39794 7C3.10004 5.79353 4.55798 5.23991 5.8926 5.67298L6.1511 5.75686C6.57236 5.39792 7.02899 5.0766 7.51725 4.79693C8.00551 4.51726 8.51431 4.28559 9.03826 4.10311L9.09429 3.83907ZM12 3.5C11.5491 3.5 11.1598 3.81335 11.067 4.25109L10.8893 5.08834C10.8115 5.45506 10.5335 5.74784 10.1692 5.84682C9.59911 6.00169 9.04777 6.22966 8.52521 6.52898C8.00265 6.8283 7.52798 7.18802 7.10776 7.60038C6.83919 7.86392 6.44464 7.95636 6.0856 7.83986L5.26593 7.57388C4.83737 7.43482 4.36922 7.6126 4.14377 8C3.91832 8.3874 3.99722 8.87852 4.33289 9.1772L4.97653 9.74993C5.25789 10.0003 5.37444 10.3858 5.27841 10.7484C4.97456 11.896 4.97134 13.1029 5.27656 14.2524C5.37291 14.6152 5.25641 15.001 4.97486 15.2516L4.33289 15.8228C3.99722 16.1215 3.91832 16.6126 4.14377 17C4.36922 17.3874 4.83737 17.5652 5.26593 17.4261L6.08555 17.1602C6.44502 17.0435 6.84005 17.1363 7.10861 17.4005C7.95939 18.2375 9.01454 18.8382 10.1682 19.1509C10.5328 19.2497 10.811 19.5426 10.8888 19.9095L11.067 20.7489C11.1598 21.1867 11.5491 21.5 12 21.5C12.4509 21.5 12.8402 21.1867 12.933 20.7489L13.1107 19.9117C13.1885 19.5449 13.4665 19.2522 13.8308 19.1532C14.4009 18.9983 14.9522 18.7703 15.4748 18.471C15.9974 18.1717 16.472 17.812 16.8922 17.3996C17.1608 17.1361 17.5554 17.0436 17.9144 17.1601L18.7341 17.4261C19.1626 17.5652 19.6308 17.3874 19.8562 17C20.0817 16.6126 20.0028 16.1215 19.6671 15.8228L19.0235 15.2501C18.7421 14.9997 18.6256 14.6142 18.7216 14.2516C19.0254 13.104 19.0287 11.8971 18.7234 10.7476C18.6271 10.3848 18.7436 9.99897 19.0251 9.74844L19.6671 9.1772C20.0028 8.87852 20.0817 8.3874 19.8562 8C19.6308 7.6126 19.1626 7.43482 18.7341 7.57388L17.9144 7.83984C17.555 7.95649 17.1599 7.86367 16.8914 7.59947C16.0406 6.7625 14.9855 6.1618 13.8318 5.8491C13.4672 5.75027 13.189 5.45739 13.1112 5.09046L12.933 4.25109C12.8402 3.81335 12.4509 3.5 12 3.5Z"
    fill="#92929D" />
</svg>