<svg width="20" height="20" viewBox="0 0 20 20" fill="none" xmlns="http://www.w3.org/2000/svg">
  <rect width="18.8889" height="18.8889" transform="translate(0.55542 0.556641)" fill="white" />
  <path fill-rule="evenodd" clip-rule="evenodd"
    d="M12.3609 4.4919C12.3609 2.75322 13.7704 1.34375 15.5091 1.34375C17.2478 1.34375 18.6572 2.75322 18.6572 4.4919C18.6572 6.23057 17.2478 7.64005 15.5091 7.64005C14.4345 7.64005 13.4856 7.10162 12.9176 6.27982L7.45614 8.94211C7.57434 9.27306 7.63871 9.62959 7.63871 10.0012C7.63871 10.3471 7.58292 10.6799 7.47985 10.9913L12.91 13.7335C13.4771 12.9055 14.4297 12.3623 15.5091 12.3623C17.2478 12.3623 18.6572 13.7717 18.6572 15.5104C18.6572 17.2491 17.2478 18.6586 15.5091 18.6586C13.7704 18.6586 12.3609 17.2491 12.3609 15.5104C12.3609 15.4146 12.3652 15.3197 12.3736 15.2261L6.61959 12.3202C6.05914 12.835 5.31155 13.1493 4.49056 13.1493C2.75188 13.1493 1.34241 11.7398 1.34241 10.0012C1.34241 8.26248 2.75188 6.85301 4.49056 6.85301C5.28247 6.85301 6.00609 7.14541 6.55934 7.62813L12.3752 4.79308C12.3657 4.69396 12.3609 4.59349 12.3609 4.4919ZM17.0832 4.4919C17.0832 3.62256 16.3784 2.91782 15.5091 2.91782C14.6397 2.91782 13.935 3.62256 13.935 4.4919C13.935 5.36124 14.6397 6.06597 15.5091 6.06597C16.3784 6.06597 17.0832 5.36124 17.0832 4.4919ZM17.0832 15.5104C17.0832 14.6411 16.3784 13.9363 15.5091 13.9363C14.6397 13.9363 13.935 14.6411 13.935 15.5104C13.935 16.3798 14.6397 17.0845 15.5091 17.0845C16.3784 17.0845 17.0832 16.3798 17.0832 15.5104ZM4.49056 8.42708C5.3599 8.42708 6.06463 9.13182 6.06463 10.0012C6.06463 10.8705 5.3599 11.5752 4.49056 11.5752C3.62122 11.5752 2.91648 10.8705 2.91648 10.0012C2.91648 9.13182 3.62122 8.42708 4.49056 8.42708Z"
    fill="#92929D" />
</svg>