<svg
  width="20"
  height="21"
  viewBox="0 0 20 21"
  fill="none"
  xmlns="http://www.w3.org/2000/svg"
>
  <path
    fill-rule="evenodd"
    clip-rule="evenodd"
    d="M9.19095 13.0005C9.65086 12.9831 10.0378 13.3419 10.0551 13.8018C10.0943 14.8386 10.1492 15.5954 10.2033 16.1379C10.2565 16.6723 10.5791 16.9938 11.0287 17.0487C11.559 17.1135 12.3069 17.1666 13.3333 17.1666C14.3597 17.1666 15.1076 17.1135 15.6378 17.0487C16.0873 16.9938 16.41 16.6721 16.4632 16.1377C16.5636 15.1306 16.6666 13.3906 16.6666 10.4999C16.6666 7.60924 16.5636 5.86926 16.4632 4.86215C16.41 4.32769 16.0873 4.00606 15.6378 3.95111C15.1076 3.8863 14.3597 3.83325 13.3333 3.83325C12.3069 3.83325 11.5589 3.88629 11.0287 3.95111C10.5791 4.00607 10.2565 4.32757 10.2033 4.86189C10.1492 5.40446 10.0943 6.1612 10.0551 7.19802C10.0378 7.65793 9.65086 8.01669 9.19095 7.99932C8.73104 7.98196 8.37228 7.59506 8.38964 7.13515C8.42982 6.07095 8.48678 5.27944 8.54483 4.69668C8.66688 3.47154 9.52105 2.45634 10.8265 2.29676C11.4342 2.22247 12.2506 2.16658 13.3333 2.16658C14.416 2.16658 15.2324 2.22248 15.8401 2.29676C17.1457 2.45637 17.9997 3.47204 18.1217 4.69694C18.2291 5.77548 18.3333 7.57365 18.3333 10.4999C18.3333 13.4262 18.2291 15.2244 18.1217 16.3029C17.9997 17.5278 17.1457 18.5435 15.8401 18.7031C15.2324 18.7774 14.416 18.8333 13.3333 18.8333C12.2506 18.8333 11.4342 18.7774 10.8265 18.7031C9.52105 18.5435 8.66688 17.5283 8.54483 16.3032C8.48678 15.7204 8.42982 14.9289 8.38964 13.8647C8.37228 13.4048 8.73104 13.0179 9.19095 13.0005Z"
    fill="#92929D"
  />
  <path
    fill-rule="evenodd"
    clip-rule="evenodd"
    d="M6.00588 12.8274C6.33132 13.1528 6.33132 13.6805 6.00588 14.0059C5.68044 14.3314 5.15281 14.3314 4.82737 14.0059L1.9107 11.0893C1.58527 10.7638 1.58527 10.2362 1.9107 9.91074L4.82737 6.99408C5.15281 6.66864 5.68044 6.66864 6.00588 6.99408C6.33132 7.31951 6.33132 7.84715 6.00588 8.17259L4.5118 9.66667H12.5C12.9602 9.66667 13.3333 10.0398 13.3333 10.5C13.3333 10.9602 12.9602 11.3333 12.5 11.3333L4.5118 11.3333L6.00588 12.8274Z"
    fill="#92929D"
  />
</svg>
