<svg width="55" height="56" viewBox="0 0 55 56" fill="none" xmlns="http://www.w3.org/2000/svg">
  <g clip-path="url(#clip0_2629_78250)">
    <path
      d="M43.0259 50.9962V53.8109H42.5552V54.1166H43.0259V56.0003H51.8169V54.2862H51.1657V53.9128H51.8169V53.3524H52.1064V53.0978H51.7627V50.9962H43.0259Z"
      fill="#F5F5F5" />
    <path
      d="M49.4825 51.0044V55.9688H51.817V54.2547H51.1658V53.9127L51.817 53.9245V53.3642H52.112L52.1064 53.0747L51.7627 53.0663V50.9962L49.4825 51.0044Z"
      fill="#E0E0E0" />
    <path
      d="M49.6487 54.0758C49.6487 54.093 48.058 54.107 46.0956 54.107C44.1331 54.107 42.5424 54.093 42.5424 54.0758C42.5424 54.0587 44.1327 54.0446 46.0956 54.0446C48.0584 54.0446 49.6487 54.0585 49.6487 54.0758Z"
      fill="#E0E0E0" />
    <path
      d="M49.6487 53.7899C49.6487 53.8072 48.058 53.8211 46.0956 53.8211C44.1331 53.8211 42.5424 53.8072 42.5424 53.7899C42.5424 53.7727 44.1327 53.7588 46.0956 53.7588C48.0584 53.7588 49.6487 53.7727 49.6487 53.7899Z"
      fill="#E0E0E0" />
    <path
      d="M50.1051 53.0205C50.1051 53.0377 48.5143 53.0517 46.5519 53.0517C44.5896 53.0517 42.9988 53.0377 42.9988 53.0205C42.9988 53.0034 44.5892 52.9894 46.5519 52.9894C48.5146 52.9894 50.1051 53.0033 50.1051 53.0205Z"
      fill="#E0E0E0" />
    <path
      d="M50.149 55.1172C50.149 55.1345 48.5582 55.1485 46.5964 55.1485C44.6347 55.1485 43.0433 55.1345 43.0433 55.1172C43.0433 55.0999 44.6337 55.0861 46.5964 55.0861C48.5591 55.0861 50.149 55.1001 50.149 55.1172Z"
      fill="#E0E0E0" />
    <path
      d="M2.26328 41.3324V44.1473H1.79266V44.453H2.26328V46.3367H11.0543V44.6226H10.4032V44.2494H11.0543V43.6888H11.3437V43.4342H11V41.3324H2.26328Z"
      fill="#F5F5F5" />
    <path
      d="M8.71979 41.3406V46.3049H11.0543V44.5909H10.4031V44.2489L11.0543 44.2606V43.7006H11.3493L11.3437 43.4111L11 43.4027V41.3324L8.71979 41.3406Z"
      fill="#E0E0E0" />
    <path
      d="M8.88616 44.412C8.88616 44.4293 7.29536 44.4432 5.3336 44.4432C3.37184 44.4432 1.78046 44.4293 1.78046 44.412C1.78046 44.3947 3.3709 44.3809 5.3336 44.3809C7.2963 44.3809 8.88616 44.3949 8.88616 44.412Z"
      fill="#E0E0E0" />
    <path
      d="M8.88616 44.1261C8.88616 44.1434 7.29536 44.1574 5.3336 44.1574C3.37184 44.1574 1.78046 44.1434 1.78046 44.1261C1.78046 44.1088 3.3709 44.095 5.3336 44.095C7.2963 44.095 8.88616 44.109 8.88616 44.1261Z"
      fill="#E0E0E0" />
    <path
      d="M9.34256 43.3567C9.34256 43.374 7.75176 43.3879 5.78941 43.3879C3.82706 43.3879 2.23627 43.374 2.23627 43.3567C2.23627 43.3394 3.82671 43.3256 5.78941 43.3256C7.75211 43.3256 9.34256 43.3396 9.34256 43.3567Z"
      fill="#E0E0E0" />
    <path
      d="M9.38644 45.4534C9.38644 45.4707 7.79564 45.4847 5.8333 45.4847C3.87095 45.4847 2.28015 45.4707 2.28015 45.4534C2.28015 45.4361 3.8706 45.4222 5.8333 45.4222C7.796 45.4222 9.38644 45.4362 9.38644 45.4534Z"
      fill="#E0E0E0" />
    <path
      d="M2.73001 46.1971V49.0117H2.2594V49.3174H2.73001V51.2011H11.5211V49.487H10.8699V49.1136H11.5211V48.5536H11.8104V48.2989H11.4668V46.1971H2.73001Z"
      fill="#F5F5F5" />
    <path
      d="M9.18652 46.2054V51.1697H11.521V49.4556H10.8699V49.1136L11.5211 49.1254V48.5653H11.8162L11.8106 48.2759L11.4669 48.2674V46.1971L9.18652 46.2054Z"
      fill="#E0E0E0" />
    <path
      d="M9.35289 49.2768C9.35289 49.294 7.76221 49.3079 5.80034 49.3079C3.83846 49.3079 2.24719 49.294 2.24719 49.2768C2.24719 49.2595 3.83752 49.2456 5.80034 49.2456C7.76316 49.2456 9.35289 49.2595 9.35289 49.2768Z"
      fill="#E0E0E0" />
    <path
      d="M9.35289 48.9909C9.35289 49.0082 7.76221 49.022 5.80034 49.022C3.83846 49.022 2.24719 49.0082 2.24719 48.9909C2.24719 48.9736 3.83752 48.9597 5.80034 48.9597C7.76316 48.9597 9.35289 48.9737 9.35289 48.9909Z"
      fill="#E0E0E0" />
    <path
      d="M9.8087 48.2215C9.8087 48.2387 8.21791 48.2526 6.25615 48.2526C4.29439 48.2526 2.703 48.2387 2.703 48.2215C2.703 48.2042 4.29345 48.1903 6.25615 48.1903C8.21885 48.1903 9.8087 48.2043 9.8087 48.2215Z"
      fill="#E0E0E0" />
    <path
      d="M9.85318 50.3181C9.85318 50.3354 8.26238 50.3494 6.30003 50.3494C4.33768 50.3494 2.74689 50.3354 2.74689 50.3181C2.74689 50.3009 4.33733 50.287 6.30003 50.287C8.26273 50.287 9.85318 50.301 9.85318 50.3181Z"
      fill="#E0E0E0" />
    <path
      d="M3.77866 50.9962V53.8109H3.30804V54.1166H3.77866V56.0003H12.5698V54.2862H11.9185V53.9128H12.5698V53.3524H12.8592V53.0978H12.5155V50.9962H3.77866Z"
      fill="#F5F5F5" />
    <path
      d="M10.2353 51.0044V55.9688H12.5698V54.2547H11.9186V53.9127L12.5698 53.9245V53.3642H12.8649L12.8592 53.0747L12.5155 53.0663V50.9962L10.2353 51.0044Z"
      fill="#E0E0E0" />
    <path
      d="M10.4015 54.0758C10.4015 54.093 8.81086 54.107 6.84898 54.107C4.88711 54.107 3.29584 54.093 3.29584 54.0758C3.29584 54.0587 4.88628 54.0446 6.84898 54.0446C8.81168 54.0446 10.4015 54.0585 10.4015 54.0758Z"
      fill="#E0E0E0" />
    <path
      d="M10.4015 53.7899C10.4015 53.8072 8.81086 53.8211 6.84898 53.8211C4.88711 53.8211 3.29584 53.8072 3.29584 53.7899C3.29584 53.7727 4.88628 53.7588 6.84898 53.7588C8.81168 53.7588 10.4015 53.7727 10.4015 53.7899Z"
      fill="#E0E0E0" />
    <path
      d="M10.8579 53.0205C10.8579 53.0377 9.2671 53.0517 7.30534 53.0517C5.34358 53.0517 3.7522 53.0377 3.7522 53.0205C3.7522 53.0034 5.34264 52.9894 7.30534 52.9894C9.26804 52.9894 10.8579 53.0033 10.8579 53.0205Z"
      fill="#E0E0E0" />
    <path
      d="M10.9018 55.1172C10.9018 55.1345 9.31099 55.1485 7.34923 55.1485C5.38747 55.1485 3.79608 55.1345 3.79608 55.1172C3.79608 55.0999 5.38653 55.0861 7.34923 55.0861C9.31193 55.0861 10.9018 55.1001 10.9018 55.1172Z"
      fill="#E0E0E0" />
    <path
      d="M32.8218 51.0577V53.7852H32.366V54.0813H32.8218V55.9071H41.3417V54.2459H40.7106V53.8841H41.3417V53.3413H41.6223V53.0944H41.2892V51.0577H32.8218Z"
      fill="#F5F5F5" />
    <path
      d="M39.0789 51.0656V55.8769H41.3413V54.2157H40.7102V53.8843L41.3413 53.896V53.3524H41.6274L41.6219 53.0719L41.2889 53.0637V51.0577L39.0789 51.0656Z"
      fill="#E0E0E0" />
    <path
      d="M39.24 54.0424C39.24 54.0591 37.6988 54.0726 35.797 54.0726C33.8953 54.0726 32.3536 54.0591 32.3536 54.0424C32.3536 54.0257 33.8949 54.0122 35.797 54.0122C37.6991 54.0122 39.24 54.0257 39.24 54.0424Z"
      fill="#E0E0E0" />
    <path
      d="M39.24 53.7653C39.24 53.782 37.6988 53.7955 35.797 53.7955C33.8953 53.7955 32.3536 53.782 32.3536 53.7653C32.3536 53.7486 33.8949 53.7351 35.797 53.7351C37.6991 53.7351 39.24 53.7486 39.24 53.7653Z"
      fill="#E0E0E0" />
    <path
      d="M39.6823 53.0196C39.6823 53.0363 38.141 53.0498 36.2393 53.0498C34.3375 53.0498 32.7959 53.0363 32.7959 53.0196C32.7959 53.0029 34.3372 52.9894 36.2393 52.9894C38.1414 52.9894 39.6823 53.0029 39.6823 53.0196Z"
      fill="#E0E0E0" />
    <path
      d="M39.7249 55.0517C39.7249 55.0684 38.1836 55.0819 36.2819 55.0819C34.3801 55.0819 32.8384 55.0684 32.8384 55.0517C32.8384 55.035 34.3796 55.0215 36.2819 55.0215C38.1841 55.0215 39.7249 55.035 39.7249 55.0517Z"
      fill="#E0E0E0" />
    <path
      d="M17.0612 46.1971V49.0117H16.5906V49.3174H17.0612V51.2011H25.8522V49.487H25.201V49.1136H25.8522V48.5536H26.1416V48.2989H25.7978V46.1971H17.0612Z"
      fill="#F5F5F5" />
    <path
      d="M23.5177 46.2054V51.1697H25.8522V49.4556H25.201V49.1136L25.8522 49.1254V48.5653H26.1473L26.1416 48.2759L25.7979 48.2674V46.1971L23.5177 46.2054Z"
      fill="#E0E0E0" />
    <path
      d="M23.6841 49.2768C23.6841 49.294 22.0933 49.3079 20.1309 49.3079C18.1686 49.3079 16.5778 49.294 16.5778 49.2768C16.5778 49.2595 18.1682 49.2456 20.1309 49.2456C22.0936 49.2456 23.6841 49.2595 23.6841 49.2768Z"
      fill="#E0E0E0" />
    <path
      d="M23.6841 48.9909C23.6841 49.0082 22.0933 49.022 20.1309 49.022C18.1686 49.022 16.5778 49.0082 16.5778 48.9909C16.5778 48.9736 18.1682 48.9597 20.1309 48.9597C22.0936 48.9597 23.6841 48.9737 23.6841 48.9909Z"
      fill="#E0E0E0" />
    <path
      d="M24.1403 48.2215C24.1403 48.2387 22.5496 48.2526 20.5878 48.2526C18.6259 48.2526 17.0346 48.2387 17.0346 48.2215C17.0346 48.2042 18.6249 48.1903 20.5878 48.1903C22.5506 48.1903 24.1403 48.2043 24.1403 48.2215Z"
      fill="#E0E0E0" />
    <path
      d="M24.1842 50.3181C24.1842 50.3354 22.5935 50.3494 20.6316 50.3494C18.6698 50.3494 17.0785 50.3354 17.0785 50.3181C17.0785 50.3009 18.6688 50.287 20.6316 50.287C22.5945 50.287 24.1842 50.301 24.1842 50.3181Z"
      fill="#E0E0E0" />
    <path
      d="M16.2907 50.9962V53.8109H15.8201V54.1166H16.2907V56.0003H25.0817V54.2862H24.4304V53.9128H25.0817V53.3524H25.3711V53.0978H25.0274V50.9962H16.2907Z"
      fill="#F5F5F5" />
    <path
      d="M22.7472 51.0044V55.9688H25.0817V54.2547H24.4305V53.9127L25.0817 53.9245V53.3642H25.3768L25.3711 53.0747L25.0274 53.0663V50.9962L22.7472 51.0044Z"
      fill="#E0E0E0" />
    <path
      d="M22.9135 54.0758C22.9135 54.093 21.3227 54.107 19.3604 54.107C17.398 54.107 15.8073 54.093 15.8073 54.0758C15.8073 54.0587 17.3977 54.0446 19.3604 54.0446C21.3231 54.0446 22.9135 54.0585 22.9135 54.0758Z"
      fill="#E0E0E0" />
    <path
      d="M22.9135 53.7899C22.9135 53.8072 21.3227 53.8211 19.3604 53.8211C17.398 53.8211 15.8073 53.8072 15.8073 53.7899C15.8073 53.7727 17.3977 53.7588 19.3604 53.7588C21.3231 53.7588 22.9135 53.7727 22.9135 53.7899Z"
      fill="#E0E0E0" />
    <path
      d="M23.3698 53.0205C23.3698 53.0377 21.7791 53.0517 19.8166 53.0517C17.8542 53.0517 16.2635 53.0377 16.2635 53.0205C16.2635 53.0034 17.8538 52.9894 19.8166 52.9894C21.7795 52.9894 23.3698 53.0033 23.3698 53.0205Z"
      fill="#E0E0E0" />
    <path
      d="M23.4137 55.1172C23.4137 55.1345 21.823 55.1485 19.8605 55.1485C17.8981 55.1485 16.3074 55.1345 16.3074 55.1172C16.3074 55.0999 17.8978 55.0861 19.8605 55.0861C21.8232 55.0861 23.4137 55.1001 23.4137 55.1172Z"
      fill="#E0E0E0" />
    <path
      d="M49.6179 55.9317C49.6179 55.9486 39.2738 55.9623 26.5166 55.9623C13.755 55.9623 3.41315 55.9486 3.41315 55.9317C3.41315 55.9148 13.7549 55.901 26.5166 55.901C39.2738 55.901 49.6179 55.9148 49.6179 55.9317Z"
      fill="#263238" />
    <path d="M29.3136 5.8479H27.041V9.39182H29.3136V5.8479Z" fill="#263238" />
    <path d="M30.5323 6.90785H25.8513V3.08801C27.49 2.68454 29.0551 2.65997 30.5323 3.08801V6.90785Z" fill="#403ECC" />
    <path
      d="M30.5874 3.10412C30.5331 3.13875 30.4751 3.1674 30.4147 3.18959C30.2541 3.25988 30.0895 3.32046 29.9217 3.37099C29.673 3.44802 29.4194 3.50811 29.1626 3.55086C28.8473 3.60121 28.5288 3.62828 28.2096 3.63186C27.8906 3.63133 27.5721 3.60729 27.2566 3.55991C26.9994 3.51967 26.7452 3.46201 26.4957 3.38733C26.3274 3.33852 26.1622 3.27963 26.001 3.21099C25.9403 3.18939 25.8822 3.16128 25.8276 3.12717C25.8331 3.11318 26.0864 3.21934 26.511 3.33325C26.7599 3.39939 27.0125 3.45089 27.2674 3.4875C27.5796 3.53002 27.8944 3.55166 28.2095 3.55227C28.5245 3.54868 28.839 3.52402 29.1507 3.47844C29.4052 3.43947 29.6573 3.38557 29.9055 3.31703C30.3298 3.19876 30.5816 3.09013 30.5874 3.10412Z"
      fill="#263238" />
    <path
      d="M27.3979 6.8971C27.3758 6.8971 27.3579 6.16375 27.3579 5.25934C27.3579 4.35493 27.3758 3.62146 27.3979 3.62146C27.42 3.62146 27.4378 4.3547 27.4378 5.25934C27.4378 6.16398 27.4198 6.8971 27.3979 6.8971Z"
      fill="#263238" />
    <path
      d="M28.2884 6.91936C28.2663 6.91936 28.2484 6.18271 28.2484 5.27419C28.2484 4.36567 28.2663 3.62891 28.2884 3.62891C28.3105 3.62891 28.3283 4.36543 28.3283 5.27419C28.3283 6.18295 28.3104 6.91936 28.2884 6.91936Z"
      fill="#263238" />
    <path
      d="M29.1789 6.90459C29.1569 6.90459 29.139 6.16794 29.139 5.25942C29.139 4.3509 29.1569 3.61414 29.1789 3.61414C29.2009 3.61414 29.2189 4.35066 29.2189 5.25942C29.2189 6.16818 29.201 6.90459 29.1789 6.90459Z"
      fill="#263238" />
    <path
      d="M29.9206 6.90452C29.8986 6.90452 29.8807 6.10827 29.8807 5.12639C29.8807 4.14451 29.8986 3.34802 29.9206 3.34802C29.9426 3.34802 29.9605 4.14404 29.9605 5.12639C29.9605 6.10874 29.9427 6.90452 29.9206 6.90452Z"
      fill="#263238" />
    <path
      d="M26.5556 6.88181C26.5336 6.88181 26.5157 6.08556 26.5157 5.10368C26.5157 4.1218 26.5336 3.32532 26.5556 3.32532C26.5776 3.32532 26.5956 4.12133 26.5956 5.10368C26.5956 6.08603 26.5778 6.88181 26.5556 6.88181Z"
      fill="#263238" />
    <path d="M42.2544 11.5944L41.1188 10.4071L39.2645 12.178L40.4001 13.3652L42.2544 11.5944Z" fill="#263238" />
    <path
      d="M42.3085 12.7604L39.9698 10.3151L41.9685 8.40674C42.9983 9.06133 43.7931 9.86663 44.3072 10.852L42.3085 12.7604Z"
      fill="#403ECC" />
    <path
      d="M40.3614 10.7244C40.3482 10.7109 40.8013 10.252 41.3732 9.69971C41.9451 9.1474 42.4196 8.71042 42.4327 8.72394C42.4457 8.73746 41.9927 9.1963 41.4208 9.74885C40.8489 10.3014 40.3744 10.7379 40.3614 10.7244Z"
      fill="#263238" />
    <path
      d="M40.8071 11.1905C40.9002 11.0802 41.0019 10.9774 41.1112 10.8831C41.3047 10.6994 41.5751 10.4491 41.876 10.1748L42.6487 9.47561L42.884 9.26553C42.9408 9.21556 42.9684 9.19005 42.9713 9.1897C42.9971 9.21321 42.523 9.67664 41.922 10.2252C41.6213 10.4997 41.3455 10.7443 41.1439 10.9188C41.0392 11.0183 40.9265 11.1092 40.8071 11.1905Z"
      fill="#263238" />
    <path
      d="M41.4004 11.8109C41.495 11.6999 41.5981 11.5964 41.7089 11.5015C41.9052 11.3168 42.1795 11.065 42.4846 10.7894L43.2705 10.0887L43.5115 9.87951C43.5401 9.85282 43.5706 9.82827 43.6029 9.80603C43.5161 9.92369 43.4155 10.0305 43.3032 10.1243C43.1088 10.3112 42.8356 10.5644 42.5305 10.8401C42.2253 11.1158 41.9458 11.362 41.7412 11.5375C41.6351 11.6375 41.5211 11.729 41.4004 11.8109Z"
      fill="#263238" />
    <path
      d="M41.9557 12.3758C41.9427 12.3622 42.4016 11.9062 42.9806 11.3576C43.5596 10.8089 44.0395 10.3752 44.0527 10.389C44.0658 10.4027 43.6069 10.8584 43.0277 11.4072C42.4484 11.956 41.9687 12.3895 41.9557 12.3758Z"
      fill="#263238" />
    <path d="M13.6191 11.4209L12.3865 12.5079L14.0844 14.43L15.3169 13.3429L13.6191 11.4209Z" fill="#263238" />
    <path
      d="M14.7871 11.4135L12.2489 13.6516L10.4199 11.5803C11.1152 10.5781 11.9521 9.81688 12.958 9.34229L14.7871 11.4135Z"
      fill="#403ECC" />
    <path
      d="M12.6738 13.2769C12.6598 13.2895 12.2189 12.8184 11.6892 12.2259C11.1596 11.6334 10.7415 11.142 10.7555 11.1294C10.7695 11.1168 11.2104 11.5873 11.7403 12.1805C12.2702 12.7737 12.6879 13.2643 12.6738 13.2769Z"
      fill="#263238" />
    <path
      d="M13.1577 12.8502C13.0509 12.7529 12.9522 12.6474 12.8622 12.5344C12.6863 12.3339 12.4467 12.0541 12.1842 11.7432L11.5158 10.9438L11.3146 10.7008C11.2668 10.642 11.2425 10.6137 11.2422 10.6106C11.2673 10.5859 11.7115 11.0776 12.2361 11.6995C12.4987 12.0104 12.7325 12.2953 12.8989 12.5039C12.9943 12.6122 13.0809 12.728 13.1577 12.8502Z"
      fill="#263238" />
    <path
      d="M13.8016 12.2825C13.6943 12.1837 13.595 12.0766 13.5045 11.9621C13.328 11.7589 13.0866 11.4751 12.8232 11.1594L12.1535 10.347L11.9535 10.0981C11.9279 10.0685 11.9045 10.0371 11.8836 10.004C11.9977 10.0954 12.1004 10.2 12.1895 10.3158C12.3687 10.5173 12.6111 10.8002 12.8747 11.1158C13.1384 11.4315 13.3733 11.7202 13.5408 11.9315C13.637 12.0413 13.7242 12.1587 13.8016 12.2825Z"
      fill="#263238" />
    <path
      d="M14.3884 11.7504C14.3742 11.7629 13.9365 11.2866 13.4108 10.6868C12.8852 10.087 12.4705 9.59046 12.4847 9.578C12.4988 9.56554 12.9365 10.0418 13.4623 10.6418C13.988 11.2419 14.4025 11.7381 14.3884 11.7504Z"
      fill="#263238" />
    <path
      d="M40.9843 39.7113C48.3006 32.4007 48.3006 20.5478 40.9843 13.2372C33.668 5.92655 21.8059 5.92655 14.4896 13.2372C7.17323 20.5478 7.17323 32.4007 14.4896 39.7113C21.8059 47.0219 33.668 47.0219 40.9843 39.7113Z"
      fill="#403ECC" />
    <path
      d="M39.9074 38.6354C46.629 31.9191 46.629 21.0297 39.9074 14.3133C33.1859 7.59696 22.288 7.59696 15.5664 14.3133C8.84486 21.0297 8.84486 31.919 15.5664 38.6354C22.288 45.3518 33.1859 45.3518 39.9074 38.6354Z"
      fill="white" />
    <path
      d="M27.7369 43.7312C18.214 43.7312 10.4664 35.9897 10.4664 26.4743C10.4664 16.9588 18.214 9.21716 27.7369 9.21716C37.2598 9.21716 45.0073 16.9586 45.0073 26.4743C45.0073 35.9899 37.2599 43.7312 27.7369 43.7312ZM27.7369 9.33473C18.2788 9.33473 10.584 17.0233 10.584 26.4743C10.584 35.9252 18.2786 43.6137 27.7369 43.6137C37.1952 43.6137 44.8896 35.9251 44.8896 26.4743C44.8896 17.0234 37.195 9.33473 27.7369 9.33473Z"
      fill="#263238" />
    <path
      d="M16.9359 19.6065C17.6529 17.382 19.1226 15.8774 21.0693 14.5823C23.016 13.2873 25.6711 12.802 28.0016 12.9991V26.8597L16.9359 19.6065Z"
      fill="#403ECC" />
    <g opacity="0.8">
      <path
        d="M16.9359 19.6065C17.6529 17.382 19.1226 15.8774 21.0693 14.5823C23.016 13.2873 25.6711 12.802 28.0016 12.9991V26.8597L16.9359 19.6065Z"
        fill="white" />
    </g>
    <path d="M26.5115 26.784L18.7699 20.7743L27.8365 24.9515L28.1033 26.5386L26.5115 26.784Z" fill="#403ECC" />
    <g opacity="0.4">
      <path d="M18.7695 20.7743L26.8541 25.5244L27.8362 24.9515L18.7695 20.7743Z" fill="black" />
    </g>
    <path
      d="M28.7197 28.0531C29.5427 27.7153 29.9358 26.7748 29.5977 25.9524C29.2596 25.13 28.3184 24.7372 27.4953 25.0751C26.6723 25.4129 26.2792 26.3534 26.6173 27.1758C26.9554 27.9982 27.8967 28.391 28.7197 28.0531Z"
      fill="#FAFAFA" />
    <path
      d="M28.107 24.9554C27.976 24.9698 27.846 24.9916 27.7175 25.0208C27.3702 25.114 27.0643 25.321 26.8487 25.6086C26.69 25.8192 26.5866 26.0662 26.5481 26.327C26.5096 26.5879 26.5371 26.8542 26.6282 27.1016C26.7356 27.3933 26.9268 27.6469 27.1778 27.8305C27.447 28.0288 27.7728 28.1358 28.1072 28.1358C28.4417 28.1358 28.7674 28.0288 29.0367 27.8305C29.2877 27.6469 29.4789 27.3934 29.5863 27.1016C29.6773 26.8542 29.7049 26.5879 29.6663 26.327C29.6278 26.0662 29.5245 25.8192 29.3658 25.6086C29.1502 25.321 28.8443 25.114 28.497 25.0208C28.3685 24.9916 28.2385 24.9699 28.1075 24.9555C28.2409 24.9459 28.375 24.9578 28.5046 24.9908C28.8648 25.075 29.1849 25.2811 29.4105 25.5741C29.5673 25.7756 29.6742 26.0113 29.7225 26.262C29.7779 26.5508 29.7546 26.8492 29.6552 27.126C29.5446 27.4326 29.3454 27.6995 29.0828 27.8929C28.8007 28.1019 28.4588 28.2146 28.1077 28.2146C27.7565 28.2146 27.4146 28.1019 27.1325 27.8929C26.8699 27.6996 26.6708 27.4327 26.5603 27.1261C26.4609 26.8493 26.4377 26.551 26.493 26.2622C26.5522 25.9558 26.6986 25.6729 26.9145 25.4474C27.1305 25.222 27.4069 25.0635 27.7106 24.9909C27.84 24.9579 27.9738 24.9459 28.107 24.9554Z"
      fill="#263238" />
    <path
      d="M28.107 25.3672C28.3442 25.3672 28.576 25.4375 28.7732 25.5691C28.9703 25.7007 29.124 25.8879 29.2148 26.1068C29.3055 26.3257 29.3293 26.5666 29.283 26.799C29.2367 27.0314 29.1225 27.2449 28.9549 27.4124C28.7872 27.58 28.5735 27.6941 28.3409 27.7403C28.1084 27.7866 27.8673 27.7628 27.6482 27.6721C27.4291 27.5815 27.2418 27.4279 27.1101 27.2309C26.9783 27.0339 26.908 26.8022 26.908 26.5653C26.9081 26.2475 27.0344 25.9428 27.2592 25.7181C27.4841 25.4935 27.789 25.3672 28.107 25.3672Z"
      fill="#263238" />
    <path
      d="M28.0279 26.0932C28.0279 26.0932 27.6977 15.7277 28.1774 13.5415C28.1774 13.5415 28.9801 19.8252 28.0279 26.0932Z"
      fill="#263238" />
    <path
      d="M27.0898 42.3729L27.0692 42.3721L27.1153 41.0797L27.1521 41.0814L27.0898 42.3729ZM33.548 41.325L33.0648 40.1258L33.1008 40.1116L33.5655 41.3187L33.548 41.325ZM20.7387 40.708L20.7192 40.6981L21.2949 39.54L21.3267 39.556L20.7387 40.708ZM39.0339 37.7337L38.111 36.8271L38.1351 36.8029L39.0502 37.7173L39.0339 37.7337ZM15.6208 36.6086L15.6014 36.5851L16.6044 35.7679L16.6213 35.7886L15.6208 36.6086ZM42.5959 32.2235L41.3828 31.7727L41.3955 31.739L42.6036 32.2034L42.5959 32.2235ZM12.6073 30.7828L12.5984 30.7496L13.8491 30.4179L13.8553 30.44L12.6073 30.7828ZM42.3062 25.8127L42.3051 25.792L43.597 25.7143L43.5991 25.7509L42.3062 25.8127ZM42.3051 25.7892L42.3034 25.7608L43.5953 25.6831L43.597 25.712L42.3051 25.7892ZM13.5067 24.4291L12.2271 24.2355L12.2315 24.2066L13.5109 24.4014L13.5067 24.4291ZM40.7214 19.9786L40.709 19.9551L41.8588 19.3611L41.8726 19.3882L40.7214 19.9786ZM15.6351 18.7982L14.5465 18.099L14.5608 18.0765L15.6518 18.7723L15.6351 18.7982ZM36.9069 15.3212L36.8845 15.3034L37.6929 14.2935L37.7153 14.3114L36.9069 15.3212ZM19.8687 14.5154L19.1597 13.4339L19.1792 13.4211L19.8969 14.4971L19.8687 14.5154ZM31.5259 12.6069L31.5017 12.6006L31.8264 11.3488L31.8581 11.357L31.5259 12.6069ZM25.4815 12.3248L25.2712 11.0489L25.3002 11.0441L25.5092 12.3203L25.4815 12.3248Z"
      fill="#263238" />
  </g>
  <defs>
    <clipPath id="clip0_2629_78250">
      <rect width="54.2316" height="56" fill="white" />
    </clipPath>
  </defs>
</svg>