<svg width="24" height="25" viewBox="0 0 24 25" fill="none" xmlns="http://www.w3.org/2000/svg">
  <path fill-rule="evenodd" clip-rule="evenodd"
    d="M17.7422 8.5H6.25785C5.10421 8.5 4.18978 9.47336 4.26174 10.6248L4.76174 18.6248C4.82762 19.6788 5.70172 20.5 6.75785 20.5H17.2422C18.2984 20.5 19.1725 19.6788 19.2383 18.6248L19.7383 10.6248C19.8103 9.47336 18.8959 8.5 17.7422 8.5ZM6.25785 6.5C3.95056 6.5 2.12172 8.44672 2.26564 10.7495L2.76564 18.7495C2.8974 20.8577 4.6456 22.5 6.75785 22.5H17.2422C19.3545 22.5 21.1027 20.8577 21.2345 18.7495L21.7345 10.7495C21.8784 8.44672 20.0495 6.5 17.7422 6.5H6.25785Z"
    fill="#777E91" />
  <path fill-rule="evenodd" clip-rule="evenodd"
    d="M7 7.5C7 4.73858 9.23858 2.5 12 2.5C14.7614 2.5 17 4.73858 17 7.5V9.5C17 10.0523 16.5523 10.5 16 10.5C15.4477 10.5 15 10.0523 15 9.5V7.5C15 5.84315 13.6569 4.5 12 4.5C10.3431 4.5 9 5.84315 9 7.5V9.5C9 10.0523 8.55228 10.5 8 10.5C7.44772 10.5 7 10.0523 7 9.5V7.5Z"
    fill="#777E91" />
</svg>