<svg width="20" height="21" viewBox="0 0 20 21" fill="none" xmlns="http://www.w3.org/2000/svg">
  <path fill-rule="evenodd" clip-rule="evenodd"
    d="M6.47432 7.01961C6.47432 4.79964 8.23935 3 10.4166 3C12.5939 3 14.3589 4.79964 14.3589 7.01961C14.3589 8.41354 13.663 9.64175 12.6062 10.3628C14.978 11.2674 16.6666 13.5993 16.6666 16.3333V18H4.16663V16.3333C4.16663 13.5993 5.85525 11.2674 8.2271 10.3628C7.17021 9.64175 6.47432 8.41354 6.47432 7.01961ZM10.4166 9.27451C11.638 9.27451 12.6282 8.26496 12.6282 7.01961C12.6282 5.77426 11.638 4.76471 10.4166 4.76471C9.19523 4.76471 8.20509 5.77426 8.20509 7.01961C8.20509 8.26496 9.19523 9.27451 10.4166 9.27451ZM10.4166 11.7255C7.95285 11.7255 5.94957 13.7357 5.8984 16.2353H14.9349C14.8837 13.7357 12.8804 11.7255 10.4166 11.7255Z"
    fill="#92929D" />
</svg>